<svg xmlns="http://www.w3.org/2000/svg" width="29.381" height="20.983" viewBox="0 0 29.381 20.983"><defs><style>.a{fill:#fff;}</style></defs><g transform="translate(0 -68.3)"><g transform="translate(0 68.3)"><g transform="translate(0 0)"><path class="a" d="M26.227,68.3H3.148A3.146,3.146,0,0,0,0,71.448v2.1H29.375v-2.1A3.146,3.146,0,0,0,26.227,68.3Z" transform="translate(0 -68.3)"/></g></g><g transform="translate(0 79.84)"><g transform="translate(0 0)"><path class="a" d="M0,256v6.3a3.146,3.146,0,0,0,3.148,3.148H26.234a3.146,3.146,0,0,0,3.148-3.148V256Zm24.131,4.193h-4.2a1.051,1.051,0,0,1,0-2.1h4.2a1.051,1.051,0,1,1,0,2.1Z" transform="translate(0 -256)"/></g></g><g transform="translate(0 75.641)"><g transform="translate(0 0)"><rect class="a" width="29.381" height="2.096"/></g></g></g></svg>