<svg xmlns="http://www.w3.org/2000/svg" width="28" height="28" viewBox="0 0 28 28"><defs><style>.a{fill:#fff;}</style></defs><path class="a" d="M1.167,15.143a1.167,1.167,0,0,0,1.167-1.167A11.632,11.632,0,0,1,13.927,2.333a11.472,11.472,0,0,1,7.515,2.776H20.373a1.167,1.167,0,1,0,0,2.333H24.2a1.167,1.167,0,0,0,1.167-1.167V2.431a1.167,1.167,0,1,0-2.333,0V3.4A13.784,13.784,0,0,0,13.927,0,13.968,13.968,0,0,0,0,13.977,1.167,1.167,0,0,0,1.167,15.143Z"/><path class="a" d="M61.862,176.32a1.166,1.166,0,0,0-1.167,1.167A11.632,11.632,0,0,1,49.1,189.13a11.474,11.474,0,0,1-7.443-2.713H42.78a1.167,1.167,0,1,0,0-2.333H38.95c-.01,0-.02,0-.03,0a1.256,1.256,0,0,0-.132.013c-.033,0-.065.008-.1.015a1.173,1.173,0,0,0-.114.036c-.035.012-.071.023-.1.038s-.062.033-.093.051-.073.041-.107.065c-.009.006-.019.01-.027.017s-.035.034-.054.05a.895.895,0,0,0-.162.171c-.023.03-.045.06-.065.091s-.038.067-.055.1-.033.066-.046.1-.024.072-.034.11a.966.966,0,0,0-.025.108,1.116,1.116,0,0,0-.012.125c0,.024-.007.047-.007.072V189.1a1.167,1.167,0,1,0,2.333,0v-.927a13.787,13.787,0,0,0,8.985,3.294,13.968,13.968,0,0,0,13.927-13.977A1.167,1.167,0,0,0,61.862,176.32Z" transform="translate(-35.029 -163.463)"/></svg>