<svg xmlns="http://www.w3.org/2000/svg" width="25.335" height="25.334" viewBox="0 0 25.335 25.334"><defs><style>.a{fill:#fff;}</style></defs><g transform="translate(0 -0.007)"><path class="a" d="M23.832,12.059a.929.929,0,0,1-.22-1.559,2.487,2.487,0,0,0,.667-2.978A2.462,2.462,0,0,0,21.611,6.1a.882.882,0,0,1-.826-.3.914.914,0,0,1-.185-.891,2.484,2.484,0,0,0-1.042-2.871,2.454,2.454,0,0,0-3.006.26.88.88,0,0,1-.857.2.9.9,0,0,1-.624-.643,2.487,2.487,0,0,0-4.809,0,.9.9,0,0,1-.624.643.88.88,0,0,1-.857-.2,2.454,2.454,0,0,0-3.006-.26A2.484,2.484,0,0,0,4.735,4.913.914.914,0,0,1,4.55,5.8a.882.882,0,0,1-.826.3A2.462,2.462,0,0,0,1.056,7.522,2.488,2.488,0,0,0,1.723,10.5a.929.929,0,0,1-.22,1.559,2.509,2.509,0,0,0,.686,4.786.891.891,0,0,1,.713.526.915.915,0,0,1-.071.907,2.489,2.489,0,0,0,.2,3.05,2.456,2.456,0,0,0,2.955.6.878.878,0,0,1,.875.051.907.907,0,0,1,.424.8,2.476,2.476,0,0,0,1.8,2.459,2.529,2.529,0,0,0,.708.1,2.459,2.459,0,0,0,2.109-1.2.9.9,0,0,1,1.543,0,2.488,2.488,0,0,0,4.615-1.36.907.907,0,0,1,.424-.8.878.878,0,0,1,.875-.051,2.456,2.456,0,0,0,2.955-.6,2.489,2.489,0,0,0,.2-3.05.915.915,0,0,1-.071-.907.891.891,0,0,1,.713-.526,2.509,2.509,0,0,0,.686-4.786ZM10.292,7.132A1.583,1.583,0,1,1,8.709,8.716,1.585,1.585,0,0,1,10.292,7.132Zm4.75,11.084a1.583,1.583,0,1,1,1.583-1.583A1.585,1.585,0,0,1,15.043,18.216Zm2.143-8.94L9.269,17.192a.792.792,0,0,1-1.12-1.12l7.917-7.917a.792.792,0,1,1,1.12,1.12Z" transform="translate(0 0)"/></g></svg>