<svg xmlns="http://www.w3.org/2000/svg" width="19.125" height="19.125" viewBox="0 0 19.125 19.125"><defs><style>.a{fill:#4f32fe;}</style></defs><g transform="translate(0 -0.007)"><path class="a" d="M17.991,9.1a.7.7,0,0,1-.166-1.177,1.878,1.878,0,0,0,.5-2.248,1.859,1.859,0,0,0-2.014-1.071.666.666,0,0,1-.624-.226.69.69,0,0,1-.139-.673,1.875,1.875,0,0,0-.786-2.167,1.853,1.853,0,0,0-2.269.2.664.664,0,0,1-.647.151.677.677,0,0,1-.471-.486,1.877,1.877,0,0,0-3.63,0,.677.677,0,0,1-.471.486A.664.664,0,0,1,6.63,1.74a1.853,1.853,0,0,0-2.269-.2,1.875,1.875,0,0,0-.786,2.167.69.69,0,0,1-.139.673.666.666,0,0,1-.624.226A1.859,1.859,0,0,0,.8,5.68a1.878,1.878,0,0,0,.5,2.248A.7.7,0,0,1,1.135,9.1a1.894,1.894,0,0,0,.518,3.613.673.673,0,0,1,.538.4.691.691,0,0,1-.054.685,1.879,1.879,0,0,0,.149,2.3,1.854,1.854,0,0,0,2.231.454.663.663,0,0,1,.661.039.685.685,0,0,1,.32.6,1.869,1.869,0,0,0,1.357,1.857,1.909,1.909,0,0,0,.535.077,1.856,1.856,0,0,0,1.592-.907.679.679,0,0,1,1.165,0A1.878,1.878,0,0,0,13.629,17.2a.684.684,0,0,1,.32-.6.663.663,0,0,1,.661-.039A1.854,1.854,0,0,0,16.84,16.1a1.879,1.879,0,0,0,.149-2.3.691.691,0,0,1-.054-.685.673.673,0,0,1,.538-.4A1.894,1.894,0,0,0,17.991,9.1ZM7.77,5.386a1.2,1.2,0,1,1-1.2,1.2A1.2,1.2,0,0,1,7.77,5.386Zm3.586,8.367a1.2,1.2,0,1,1,1.2-1.2A1.2,1.2,0,0,1,11.356,13.753ZM12.974,7,7,12.98a.6.6,0,1,1-.845-.845l5.976-5.976A.6.6,0,1,1,12.974,7Z" transform="translate(0)"/></g></svg>