<?xml version="1.0" encoding="UTF-8"?>
<svg xmlns="http://www.w3.org/2000/svg" xmlns:xlink="http://www.w3.org/1999/xlink" width="16pt" height="16pt" viewBox="0 0 16 16" version="1.1">
<g id="surface1">
<path style=" stroke:none;fill-rule:nonzero;fill:rgb(30.980392%,19.607843%,99.607843%);fill-opacity:1;" d="M 15.148438 7.65625 C 14.964844 7.574219 14.832031 7.402344 14.804688 7.199219 C 14.777344 7 14.855469 6.796875 15.011719 6.667969 C 15.566406 6.207031 15.738281 5.425781 15.429688 4.773438 C 15.140625 4.121094 14.441406 3.75 13.734375 3.871094 C 13.539062 3.90625 13.339844 3.832031 13.210938 3.679688 C 13.074219 3.527344 13.027344 3.308594 13.09375 3.113281 C 13.316406 2.425781 13.042969 1.675781 12.429688 1.289062 C 11.832031 0.902344 11.042969 0.96875 10.519531 1.457031 C 10.375 1.59375 10.167969 1.644531 9.976562 1.585938 C 9.78125 1.527344 9.628906 1.371094 9.578125 1.175781 C 9.394531 0.480469 8.769531 -0.00390625 8.050781 -0.00390625 C 7.332031 -0.00390625 6.703125 0.480469 6.523438 1.175781 C 6.472656 1.371094 6.320312 1.527344 6.125 1.585938 C 5.933594 1.640625 5.730469 1.59375 5.582031 1.460938 C 5.058594 0.972656 4.273438 0.902344 3.671875 1.289062 C 3.058594 1.675781 2.785156 2.425781 3.011719 3.117188 C 3.074219 3.3125 3.03125 3.527344 2.894531 3.683594 C 2.765625 3.835938 2.566406 3.90625 2.367188 3.871094 C 1.664062 3.75 0.964844 4.125 0.671875 4.777344 C 0.367188 5.429688 0.539062 6.210938 1.09375 6.671875 C 1.25 6.800781 1.324219 7 1.296875 7.203125 C 1.269531 7.402344 1.140625 7.574219 0.957031 7.65625 C 0.300781 7.945312 -0.0859375 8.636719 0.015625 9.34375 C 0.117188 10.054688 0.679688 10.609375 1.390625 10.699219 C 1.59375 10.722656 1.765625 10.851562 1.84375 11.035156 C 1.933594 11.222656 1.917969 11.441406 1.800781 11.613281 C 1.394531 12.210938 1.445312 13.007812 1.925781 13.550781 C 2.390625 14.09375 3.164062 14.25 3.804688 13.933594 C 3.980469 13.84375 4.195312 13.855469 4.359375 13.964844 C 4.535156 14.074219 4.636719 14.265625 4.628906 14.472656 C 4.605469 15.191406 5.078125 15.835938 5.773438 16.035156 C 5.917969 16.078125 6.070312 16.097656 6.222656 16.097656 C 6.773438 16.097656 7.28125 15.808594 7.5625 15.335938 C 7.667969 15.164062 7.851562 15.058594 8.054688 15.058594 C 8.253906 15.058594 8.441406 15.164062 8.542969 15.335938 C 8.917969 15.945312 9.652344 16.234375 10.339844 16.03125 C 11.027344 15.832031 11.492188 15.195312 11.476562 14.476562 C 11.472656 14.273438 11.574219 14.082031 11.746094 13.972656 C 11.914062 13.863281 12.125 13.851562 12.304688 13.941406 C 12.945312 14.253906 13.71875 14.097656 14.179688 13.550781 C 14.660156 13.011719 14.710938 12.214844 14.304688 11.613281 C 14.191406 11.445312 14.171875 11.226562 14.261719 11.039062 C 14.339844 10.851562 14.515625 10.726562 14.714844 10.703125 C 15.425781 10.609375 15.988281 10.054688 16.089844 9.34375 C 16.195312 8.636719 15.808594 7.945312 15.148438 7.65625 Z M 6.542969 4.53125 C 7.101562 4.53125 7.554688 4.980469 7.554688 5.539062 C 7.554688 6.097656 7.101562 6.550781 6.542969 6.550781 C 5.984375 6.550781 5.53125 6.097656 5.53125 5.539062 C 5.53125 4.980469 5.984375 4.53125 6.542969 4.53125 Z M 9.5625 11.574219 C 9.003906 11.574219 8.550781 11.125 8.550781 10.566406 C 8.550781 10.007812 9.003906 9.554688 9.5625 9.554688 C 10.121094 9.554688 10.574219 10.007812 10.574219 10.566406 C 10.574219 11.125 10.121094 11.574219 9.5625 11.574219 Z M 10.925781 5.890625 L 5.894531 10.925781 C 5.773438 11.070312 5.578125 11.136719 5.390625 11.09375 C 5.203125 11.050781 5.058594 10.902344 5.015625 10.71875 C 4.96875 10.53125 5.035156 10.335938 5.183594 10.214844 L 10.214844 5.179688 C 10.335938 5.027344 10.535156 4.953125 10.722656 4.996094 C 10.914062 5.039062 11.066406 5.1875 11.109375 5.378906 C 11.152344 5.570312 11.078125 5.769531 10.925781 5.890625 Z M 10.925781 5.890625 "/>
</g>
</svg>
